<svg xmlns="http://www.w3.org/2000/svg" viewBox="0 0 1200 675" width="1200" height="675">
  <defs>
    <linearGradient id="bg" x1="0" y1="0" x2="1" y2="1">
      <stop offset="0" stop-color="#6D28D9"/>
      <stop offset="0.6" stop-color="#8B5CF6"/>
      <stop offset="1" stop-color="#E879F9"/>
    </linearGradient>
    <linearGradient id="av" x1="0" y1="0" x2="1" y2="1">
      <stop offset="0" stop-color="#7C3AED"/>
      <stop offset="1" stop-color="#E879F9"/>
    </linearGradient>
    <filter id="shadow" x="-20%" y="-20%" width="140%" height="140%">
      <feDropShadow dx="0" dy="20" stdDeviation="24" flood-color="#2e1065" flood-opacity="0.35"/>
    </filter>
  </defs>
  <rect width="1200" height="675" fill="url(#bg)"/>
  <circle cx="1060" cy="600" r="240" fill="#fff" opacity="0.07"/>
  <circle cx="90" cy="70" r="200" fill="#fff" opacity="0.06"/>

  <!-- Browser window -->
  <g filter="url(#shadow)">
    <rect x="200" y="110" width="800" height="460" rx="20" fill="#fff"/>
  </g>
  <path d="M200 130a20 20 0 0 1 20-20h760a20 20 0 0 1 20 20v30H200z" fill="#F3F4F6"/>
  <circle cx="232" cy="135" r="7" fill="#F87171"/>
  <circle cx="256" cy="135" r="7" fill="#FBBF24"/>
  <circle cx="280" cy="135" r="7" fill="#34D399"/>
  <rect x="420" y="124" width="360" height="22" rx="11" fill="#fff"/>
  <text x="600" y="140" text-anchor="middle" font-family="Inter, 'Segoe UI', Helvetica, Arial, sans-serif" font-size="13" fill="#6B7280">username.github.io</text>

  <!-- Page content -->
  <circle cx="370" cy="300" r="82" fill="url(#av)"/>
  <text x="370" y="328" text-anchor="middle" font-family="Inter, 'Segoe UI', Helvetica, Arial, sans-serif" font-size="80" font-weight="800" fill="#fff">H</text>
  <rect x="490" y="236" width="300" height="26" rx="8" fill="#111827"/>
  <rect x="490" y="278" width="150" height="14" rx="7" fill="#7C3AED"/>
  <rect x="490" y="310" width="400" height="12" rx="6" fill="#E5E7EB"/>
  <rect x="490" y="332" width="360" height="12" rx="6" fill="#E5E7EB"/>
  <g>
    <rect x="490" y="364" width="34" height="34" rx="8" fill="#F3F4F6"/>
    <rect x="534" y="364" width="34" height="34" rx="8" fill="#F3F4F6"/>
    <rect x="578" y="364" width="34" height="34" rx="8" fill="#F3F4F6"/>
    <rect x="622" y="364" width="34" height="34" rx="8" fill="#F3F4F6"/>
    <circle cx="507" cy="381" r="8" fill="#181717"/>
    <rect x="543" y="372" width="16" height="16" rx="3" fill="#0A66C2"/>
    <path d="M588 373l14 16M602 373l-14 16" stroke="#000" stroke-width="3" stroke-linecap="round"/>
    <rect x="630" y="374" width="18" height="13" rx="2" fill="#EA4335"/>
  </g>
  <rect x="280" y="456" width="640" height="2" fill="#F3F4F6"/>
  <rect x="280" y="484" width="190" height="56" rx="10" fill="#F5F3FF"/>
  <rect x="505" y="484" width="190" height="56" rx="10" fill="#F5F3FF"/>
  <rect x="730" y="484" width="190" height="56" rx="10" fill="#F5F3FF"/>

  <!-- Code tag -->
  <text x="80" y="610" font-family="'JetBrains Mono', 'Fira Code', Menlo, Consolas, monospace" font-size="44" font-weight="700" fill="#fff" opacity="0.9">&lt;/&gt;</text>
</svg>
